<?xml version="1.0" encoding="UTF-8"?>
<svg id="Ebene_1" data-name="Ebene 1" xmlns="http://www.w3.org/2000/svg" viewBox="0 0 960 954.1">
  <defs>
    <style>
      .cls-1 {
        fill: #fff;
      }
    </style>
  </defs>
  <g>
    <path class="cls-1" d="M576.3,620c-19.9,11.5-43,18.2-67.7,18.2s-47.7-6.6-67.7-18.2l-158.1,273.8c67.9,39.3,145.2,60.3,225.7,60.3s157.9-21,225.7-60.3l-158.1-273.8Z"/>
    <path class="cls-1" d="M734.4,111.8l-158.1,273.8c40.4,23.4,67.7,67.2,67.7,117.2h315.9c0-120.6-47-233.9-132.2-319.1-28.3-28.3-59.7-52.3-93.4-71.9Z"/>
  </g>
  <path class="cls-1" d="M152.2,832.2c-9.8,0-19.7-2.5-28.8-7.7-27.6-15.9-37.1-51.3-21.2-78.9L515.6,28.9c15.9-27.6,51.3-37.1,78.9-21.2,27.6,15.9,37.1,51.3,21.2,78.9L202.3,803.3c-10.7,18.5-30.1,28.9-50.1,28.9Z"/>
  <path class="cls-1" d="M57.7,533.5c-9.8,0-19.7-2.5-28.8-7.7-27.6-16-37.1-51.3-21.1-78.9L209.9,96.6c16-27.6,51.3-37.1,78.9-21.1,27.6,16,37.1,51.3,21.1,78.9L107.8,504.6c-10.7,18.5-30.1,28.9-50.1,28.9Z"/>
</svg>